<?xml version="1.0" encoding="UTF-8" standalone="no"?>
<svg
   width="118.28772"
   height="92.815025"
   viewBox="0 0 118.28772 92.815025"
   version="1.1"
   id="svg96"
   sodipodi:docname="Google_Sheets_logo_(2014-2020).svg"
   inkscape:version="1.2.2 (b0a84865, 2022-12-01)"
   xmlns:inkscape="http://www.inkscape.org/namespaces/inkscape"
   xmlns:sodipodi="http://sodipodi.sourceforge.net/DTD/sodipodi-0.dtd"
   xmlns:xlink="http://www.w3.org/1999/xlink"
   xmlns="http://www.w3.org/2000/svg"
   xmlns:svg="http://www.w3.org/2000/svg"
   xmlns:rdf="http://www.w3.org/1999/02/22-rdf-syntax-ns#"
   xmlns:cc="http://creativecommons.org/ns#"
   xmlns:dc="http://purl.org/dc/elements/1.1/">
  <sodipodi:namedview
     id="namedview98"
     pagecolor="#ffffff"
     bordercolor="#000000"
     borderopacity="0.25"
     inkscape:showpageshadow="2"
     inkscape:pageopacity="0.0"
     inkscape:pagecheckerboard="0"
     inkscape:deskcolor="#d1d1d1"
     showgrid="false"
     inkscape:zoom="5.7563236"
     inkscape:cx="61.931889"
     inkscape:cy="50.466238"
     inkscape:window-width="1440"
     inkscape:window-height="841"
     inkscape:window-x="0"
     inkscape:window-y="25"
     inkscape:window-maximized="0"
     inkscape:current-layer="Hero" />
  <!-- Generator: Sketch 54.1 (76490) - https://sketchapp.com -->
  <title
     id="title2">Sheets-icon</title>
  <desc
     id="desc4">Created with Sketch.</desc>
  <defs
     id="defs23">
    <path
       d="M 29.583333,0 H 4.4375 C 1.996875,0 0,1.996875 0,4.4375 v 56.208333 c 0,2.440625 1.996875,4.4375 4.4375,4.4375 h 38.458333 c 2.440625,0 4.4375,-1.996875 4.4375,-4.4375 V 17.75 Z"
       id="path-1" />
    <path
       d="M 29.583333,0 H 4.4375 C 1.996875,0 0,1.996875 0,4.4375 v 56.208333 c 0,2.440625 1.996875,4.4375 4.4375,4.4375 h 38.458333 c 2.440625,0 4.4375,-1.996875 4.4375,-4.4375 V 17.75 Z"
       id="path-3" />
    <path
       d="M 29.583333,0 H 4.4375 C 1.996875,0 0,1.996875 0,4.4375 v 56.208333 c 0,2.440625 1.996875,4.4375 4.4375,4.4375 h 38.458333 c 2.440625,0 4.4375,-1.996875 4.4375,-4.4375 V 17.75 Z"
       id="path-5" />
    <linearGradient
       x1="39.103809"
       y1="17.86631"
       x2="39.103809"
       y2="32.906357"
       id="linearGradient-7"
       gradientTransform="scale(1.0001124,0.99988761)"
       gradientUnits="userSpaceOnUse">
      <stop
         stop-color="#263238"
         stop-opacity="0.2"
         offset="0%"
         id="stop9" />
      <stop
         stop-color="#263238"
         stop-opacity="0.02"
         offset="100%"
         id="stop11" />
    </linearGradient>
    <path
       d="M 29.583333,0 H 4.4375 C 1.996875,0 0,1.996875 0,4.4375 v 56.208333 c 0,2.440625 1.996875,4.4375 4.4375,4.4375 h 38.458333 c 2.440625,0 4.4375,-1.996875 4.4375,-4.4375 V 17.75 Z"
       id="path-8" />
    <path
       d="M 29.583333,0 H 4.4375 C 1.996875,0 0,1.996875 0,4.4375 v 56.208333 c 0,2.440625 1.996875,4.4375 4.4375,4.4375 h 38.458333 c 2.440625,0 4.4375,-1.996875 4.4375,-4.4375 V 17.75 Z"
       id="path-10" />
    <path
       d="M 29.583333,0 H 4.4375 C 1.996875,0 0,1.996875 0,4.4375 v 56.208333 c 0,2.440625 1.996875,4.4375 4.4375,4.4375 h 38.458333 c 2.440625,0 4.4375,-1.996875 4.4375,-4.4375 V 17.75 Z"
       id="path-12" />
    <path
       d="M 29.583333,0 H 4.4375 C 1.996875,0 0,1.996875 0,4.4375 v 56.208333 c 0,2.440625 1.996875,4.4375 4.4375,4.4375 h 38.458333 c 2.440625,0 4.4375,-1.996875 4.4375,-4.4375 V 17.75 Z"
       id="path-14" />
    <radialGradient
       cx="1.7583691"
       cy="1.5082694"
       fx="1.7583691"
       fy="1.5082694"
       r="89.498177"
       gradientTransform="matrix(0.85280287,0,0,1.1726039,451.83333,388.95833)"
       id="radialGradient-16"
       gradientUnits="userSpaceOnUse">
      <stop
         stop-color="#FFFFFF"
         stop-opacity="0.1"
         offset="0%"
         id="stop18" />
      <stop
         stop-color="#FFFFFF"
         stop-opacity="0"
         offset="100%"
         id="stop20" />
    </radialGradient>
    <mask
       id="mask-2"
       fill="#ffffff">
      <use
         xlink:href="#path-1"
         id="use25" />
    </mask>
    <mask
       id="mask-15"
       fill="#ffffff">
      <use
         xlink:href="#path-14"
         id="use78" />
    </mask>
    <mask
       id="mask-4"
       fill="#ffffff">
      <use
         xlink:href="#path-3"
         id="use31" />
    </mask>
    <mask
       id="mask-6"
       fill="#ffffff">
      <use
         xlink:href="#path-5"
         id="use39" />
    </mask>
    <mask
       id="mask-11"
       fill="#ffffff">
      <use
         xlink:href="#path-10"
         id="use60" />
    </mask>
    <mask
       id="mask-13"
       fill="#ffffff">
      <use
         xlink:href="#path-12"
         id="use69" />
    </mask>
  </defs>
  <g
     id="Page-1"
     stroke="none"
     stroke-width="1"
     fill="none"
     fill-rule="evenodd"
     transform="translate(35.2964,20.58594)">
    <g
       id="Consumer-Apps-Sheets-Large-VD-R8-"
       transform="translate(-451,-451)">
      <g
         id="Hero"
         transform="translate(0,63)">
        <path
           style="fill:#2b2200;stroke-width:1.52467"
           d="m 526.94375,412.09291 c -0.16867,3.56882 -1.31303,7.02301 -3.30854,9.9866 -0.84628,1.1953 -1.8753,2.25005 -3.04935,3.12558 2.60719,0.33543 3.81168,-0.15247 4.46729,0.99104 0.23853,0.44796 0.23853,0.98523 0,1.43319 -1.97743,3.60473 -5.05422,6.48388 -8.78211,8.21798 l 3.50675,3.29329 c 0.77086,0.75657 0.53231,2.05268 -0.4574,2.48522 -3.31837,1.32257 -6.93518,1.71273 -10.45926,1.12826 -3.75069,-0.60987 -9.2483,-4.57402 -12.41962,-7.4709 0.99512,-12.46031 -2.1707,-19.85724 2.50551,-25.92866 0.19002,-0.0921 4.9155,-0.31274 5.12664,-0.31095 0,0 7.05923,0 11.11486,-4.13186 3.21276,-3.31669 6.22186,-6.82477 9.01081,-10.50499 0.9266,-1.26712 2.93236,-0.47596 2.74442,1.08252 0,0.48789 -1.14351,10.06283 -4.33008,16.08529 l 2.25652,-0.89956 c 0.99712,-0.38477 2.07041,0.34917 2.07356,1.41795 z"
           id="path9950"
           sodipodi:nodetypes="cccccccccccccccccc" />
        <path
           style="fill:#2b2200;stroke-width:1.52467"
           d="m 422.316,412.09291 c 0.16867,3.56882 1.31303,7.02301 3.30854,9.9866 0.84628,1.1953 1.8753,2.25005 3.04935,3.12558 -2.60719,0.33543 -3.81168,-0.15247 -4.46729,0.99104 -0.23853,0.44796 -0.23853,0.98523 0,1.43319 1.97743,3.60473 5.05422,6.48388 8.78211,8.21798 l -3.50675,3.29329 c -0.77086,0.75657 -0.53231,2.05268 0.4574,2.48522 3.31837,1.32257 6.93518,1.71273 10.45926,1.12826 3.75069,-0.60987 9.2483,-4.57402 12.41962,-7.4709 -0.99512,-12.46031 4.77653,-19.5098 0.10032,-25.58122 -0.19002,-0.0921 -7.52133,-0.66018 -7.73247,-0.65839 0,0 -7.05923,0 -11.11486,-4.13186 -3.21276,-3.31669 -6.22186,-6.82477 -9.01081,-10.50499 -0.9266,-1.26712 -2.93236,-0.47596 -2.74442,1.08252 0,0.48789 1.14351,10.06283 4.33008,16.08529 l -2.25652,-0.89956 c -0.99712,-0.38477 -2.07041,0.34917 -2.07356,1.41795 z"
           id="path8860"
           sodipodi:nodetypes="cccccccccccccccccc" />
        <path
           d="M 29.583333,0 H 4.4375 C 1.996875,0 0,1.996875 0,4.4375 v 56.208333 c 0,2.440625 1.996875,4.4375 4.4375,4.4375 h 38.458333 c 2.440625,0 4.4375,-1.996875 4.4375,-4.4375 V 17.75 L 36.979167,10.354167 Z"
           id="Path"
           fill="#0f9d58"
           fill-rule="nonzero"
           mask="url(#mask-2)"
           transform="translate(451.83333,388.95833)" />
        <path
           d="m 487.68644,434.90756 v 2.61403 c 0,2.04718 -5.514,3.70833 -11.84534,3.70833 -6.33014,0 -11.84533,-1.66115 -11.84533,-3.70833 v -2.61403 c 2.8642,1.84833 8.29765,2.3992 11.84533,2.3992 3.56071,0 8.98825,-0.5562 11.84534,-2.3992 z m -11.84534,-3.62538 c -3.5607,0 -8.98824,-0.55621 -11.84533,-2.39921 v 2.58851 c 0,2.04824 5.51519,3.70833 11.84533,3.70833 6.33134,0 11.84534,-1.66115 11.84534,-3.70833 v -2.58851 c -2.86419,1.84833 -8.29764,2.39921 -11.84534,2.39921 z m 0,-15.57567 c -6.33014,0 -11.84533,1.66115 -11.84533,3.7094 0,2.04825 5.51519,3.70835 11.84533,3.70835 6.33134,0 11.84534,-1.66116 11.84534,-3.70835 0,-2.04825 -5.514,-3.7094 -11.84534,-3.7094 z m 0,9.5447 c -3.5607,0 -8.98824,-0.5562 -11.84533,-2.3992 v 2.59488 c 0,2.04825 5.51519,3.70833 11.84533,3.70833 6.33134,0 11.84534,-1.66115 11.84534,-3.70833 v -2.59488 c -2.86419,1.8483 -8.29764,2.3992 -11.84534,2.3992 z"
           id="path4829"
           style="fill:#f2f2f2;stroke-width:1.12237" />
        <polygon
           id="polygon44"
           fill="url(#linearGradient-7)"
           fill-rule="nonzero"
           mask="url(#mask-6)"
           points="47.333333,17.75 30.881302,16.452031 47.333333,32.900365 "
           style="fill:url(#linearGradient-7)"
           transform="translate(451.83333,388.95833)" />
        <g
           transform="translate(478.45833,386)"
           id="g55"
           mask="none">
          <path
             d="M 2.9583333,2.9583333 V 16.270833 c 0,2.451719 1.9857813,4.4375 4.4375,4.4375 H 20.708333 Z"
             id="path53"
             fill="#87ceac"
             fill-rule="nonzero" />
        </g>
        <g
           id="g1168">
          <g
             id="g1162">
            <use
               xlink:href="#path-8"
               id="use1160"
               transform="translate(451.83333,388.95833)" />
          </g>
        </g>
        <path
           d="M 4.4375,0 C 1.996875,0 0,1.996875 0,4.4375 V 4.8072917 C 0,2.3666667 1.996875,0.36979167 4.4375,0.36979167 H 29.583333 V 0 Z"
           id="path65"
           fill-opacity="0.2"
           fill="#ffffff"
           fill-rule="nonzero"
           mask="url(#mask-11)"
           transform="translate(451.83333,388.95833)" />
        <path
           d="M 42.895833,64.713542 H 4.4375 C 1.996875,64.713542 0,62.716667 0,60.276042 v 0.369791 c 0,2.440625 1.996875,4.4375 4.4375,4.4375 h 38.458333 c 2.440625,0 4.4375,-1.996875 4.4375,-4.4375 v -0.369791 c 0,2.440625 -1.996875,4.4375 -4.4375,4.4375 z"
           id="path74"
           fill-opacity="0.2"
           fill="#263238"
           fill-rule="nonzero"
           mask="url(#mask-13)"
           transform="translate(451.83333,388.95833)" />
        <path
           d="m 34.020833,17.75 c -2.451718,0 -4.4375,-1.985781 -4.4375,-4.4375 v 0.369792 c 0,2.451718 1.985782,4.4375 4.4375,4.4375 h 13.3125 V 17.75 Z"
           id="path83"
           fill-opacity="0.1"
           fill="#263238"
           fill-rule="nonzero"
           mask="url(#mask-15)"
           transform="translate(451.83333,388.95833)" />
        <path
           d="m 481.41666,388.95833 h -25.14583 c -2.44063,0 -4.4375,1.99688 -4.4375,4.4375 v 56.20834 c 0,2.44062 1.99687,4.4375 4.4375,4.4375 h 38.45833 c 2.44063,0 4.4375,-1.99688 4.4375,-4.4375 v -42.89584 z"
           id="path89"
           fill="url(#radialGradient-16)"
           fill-rule="nonzero"
           style="fill:url(#radialGradient-16)" />
        <path
           id="path9741"
           style="fill:#ffdd55;stroke-width:2.5906"
           d="m 474.84961,367.41406 c -9.61113,0 -25.90625,1.91831 -25.90625,9.06836 0,7.15006 16.29512,9.06641 25.90625,9.06641 9.61113,0 25.90625,-1.91635 25.90625,-9.06641 0,-7.15005 -16.29512,-9.06836 -25.90625,-9.06836 z m 0,5.18164 c 12.30536,0 19.17138,2.59142 20.57031,3.88672 -1.39893,1.29531 -8.26495,3.88477 -20.57031,3.88477 -12.30536,0 -19.16943,-2.58946 -20.56836,-3.88477 1.39893,-1.2953 8.263,-3.88672 20.56836,-3.88672 z" />
      </g>
    </g>
  </g>
  <metadata
     id="metadata9850">
    <rdf:RDF>
      <cc:Work
         rdf:about="">
        <dc:title>Sheets-icon</dc:title>
      </cc:Work>
    </rdf:RDF>
  </metadata>
</svg>
